<mxfile host="app.diagrams.net" modified="2024-04-14T17:02:33.644Z" agent="Mozilla/5.0 (X11; Linux x86_64) AppleWebKit/537.36 (KHTML, like Gecko) Chrome/122.0.0.0 Safari/537.36" etag="qe1-mUVxwdg4gUJXRpnH" version="24.2.5" type="device">
  <diagram name="Page-1" id="3VOfUJL9IRQDbpyeYZGl">
    <mxGraphModel dx="1238" dy="800" grid="1" gridSize="10" guides="1" tooltips="1" connect="1" arrows="1" fold="1" page="1" pageScale="1" pageWidth="827" pageHeight="1169" background="#FFFFFF" math="0" shadow="0">
      <root>
        <mxCell id="0" />
        <mxCell id="1" parent="0" />
        <mxCell id="6HVjOzEAQYp-GUBprz-B-11" value="" style="rounded=0;whiteSpace=wrap;html=1;fillColor=none;fontFamily=Roboto;fontSource=https%3A%2F%2Ffonts.googleapis.com%2Fcss%3Ffamily%3DRoboto;" vertex="1" parent="1">
          <mxGeometry x="175.5" y="78" width="180" height="122" as="geometry" />
        </mxCell>
        <mxCell id="6HVjOzEAQYp-GUBprz-B-8" value="&lt;font&gt;Phone&lt;/font&gt;" style="rounded=1;whiteSpace=wrap;html=1;fontFamily=Roboto;fontSource=https%3A%2F%2Ffonts.googleapis.com%2Fcss%3Ffamily%3DRoboto;" vertex="1" parent="1">
          <mxGeometry x="235.5" y="158" width="60" height="30" as="geometry" />
        </mxCell>
        <mxCell id="6HVjOzEAQYp-GUBprz-B-9" value="ESP-32 CAM" style="rounded=1;whiteSpace=wrap;html=1;fontFamily=Roboto;fontSource=https%3A%2F%2Ffonts.googleapis.com%2Fcss%3Ffamily%3DRoboto;" vertex="1" parent="1">
          <mxGeometry x="185.5" y="88" width="60" height="40" as="geometry" />
        </mxCell>
        <mxCell id="6HVjOzEAQYp-GUBprz-B-10" value="ESP-32 Plotter" style="rounded=1;whiteSpace=wrap;html=1;fontFamily=Roboto;fontSource=https%3A%2F%2Ffonts.googleapis.com%2Fcss%3Ffamily%3DRoboto;" vertex="1" parent="1">
          <mxGeometry x="285.5" y="88" width="60" height="40" as="geometry" />
        </mxCell>
        <mxCell id="6HVjOzEAQYp-GUBprz-B-12" value="LAN" style="text;html=1;align=center;verticalAlign=middle;whiteSpace=wrap;rounded=0;fontFamily=Roboto;fontSource=https%3A%2F%2Ffonts.googleapis.com%2Fcss%3Ffamily%3DRoboto;" vertex="1" parent="1">
          <mxGeometry x="317.5" y="179" width="40" height="20" as="geometry" />
        </mxCell>
        <mxCell id="6HVjOzEAQYp-GUBprz-B-13" value="" style="endArrow=classic;startArrow=classic;html=1;rounded=0;exitX=0;exitY=0;exitDx=0;exitDy=0;entryX=0.5;entryY=1;entryDx=0;entryDy=0;fontFamily=Roboto;fontSource=https%3A%2F%2Ffonts.googleapis.com%2Fcss%3Ffamily%3DRoboto;" edge="1" parent="1" source="6HVjOzEAQYp-GUBprz-B-8" target="6HVjOzEAQYp-GUBprz-B-9">
          <mxGeometry width="50" height="50" relative="1" as="geometry">
            <mxPoint x="165.5" y="178" as="sourcePoint" />
            <mxPoint x="215.5" y="128" as="targetPoint" />
          </mxGeometry>
        </mxCell>
        <mxCell id="6HVjOzEAQYp-GUBprz-B-14" value="" style="endArrow=classic;startArrow=classic;html=1;rounded=0;exitX=1;exitY=0;exitDx=0;exitDy=0;entryX=0.5;entryY=1;entryDx=0;entryDy=0;fontFamily=Roboto;fontSource=https%3A%2F%2Ffonts.googleapis.com%2Fcss%3Ffamily%3DRoboto;" edge="1" parent="1" source="6HVjOzEAQYp-GUBprz-B-8" target="6HVjOzEAQYp-GUBprz-B-10">
          <mxGeometry width="50" height="50" relative="1" as="geometry">
            <mxPoint x="315.5" y="178" as="sourcePoint" />
            <mxPoint x="365.5" y="128" as="targetPoint" />
          </mxGeometry>
        </mxCell>
        <mxCell id="6HVjOzEAQYp-GUBprz-B-15" value="Computer Vision Server" style="rounded=1;whiteSpace=wrap;html=1;fontFamily=Roboto;fontSource=https%3A%2F%2Ffonts.googleapis.com%2Fcss%3Ffamily%3DRoboto;" vertex="1" parent="1">
          <mxGeometry x="220.5" y="230" width="90" height="40" as="geometry" />
        </mxCell>
        <mxCell id="6HVjOzEAQYp-GUBprz-B-16" value="" style="endArrow=classic;startArrow=classic;html=1;rounded=0;entryX=0.5;entryY=1;entryDx=0;entryDy=0;fontFamily=Roboto;fontSource=https%3A%2F%2Ffonts.googleapis.com%2Fcss%3Ffamily%3DRoboto;" edge="1" parent="1" target="6HVjOzEAQYp-GUBprz-B-8">
          <mxGeometry width="50" height="50" relative="1" as="geometry">
            <mxPoint x="265.5" y="228" as="sourcePoint" />
            <mxPoint x="335.5" y="168" as="targetPoint" />
          </mxGeometry>
        </mxCell>
        <mxCell id="6HVjOzEAQYp-GUBprz-B-17" value="Devices Interoperation Diagram" style="text;html=1;align=center;verticalAlign=middle;whiteSpace=wrap;rounded=0;fontFamily=Roboto;fontSource=https%3A%2F%2Ffonts.googleapis.com%2Fcss%3Ffamily%3DRoboto;fontSize=14;" vertex="1" parent="1">
          <mxGeometry x="163" y="40" width="205" height="30" as="geometry" />
        </mxCell>
        <mxCell id="6HVjOzEAQYp-GUBprz-B-18" value="" style="endArrow=none;html=1;rounded=0;fontFamily=Roboto;fontSource=https%3A%2F%2Ffonts.googleapis.com%2Fcss%3Ffamily%3DRoboto;" edge="1" parent="1">
          <mxGeometry width="50" height="50" relative="1" as="geometry">
            <mxPoint x="489.5" y="210" as="sourcePoint" />
            <mxPoint x="489.5" y="92" as="targetPoint" />
          </mxGeometry>
        </mxCell>
        <mxCell id="6HVjOzEAQYp-GUBprz-B-19" value="LAN Devices Discovery Protocol" style="text;html=1;align=center;verticalAlign=middle;whiteSpace=wrap;rounded=0;fontFamily=Roboto;fontSource=https%3A%2F%2Ffonts.googleapis.com%2Fcss%3Ffamily%3DRoboto;fontSize=14;" vertex="1" parent="1">
          <mxGeometry x="444.5" y="40" width="210" height="30" as="geometry" />
        </mxCell>
        <mxCell id="6HVjOzEAQYp-GUBprz-B-20" value="Phone" style="text;html=1;align=center;verticalAlign=middle;whiteSpace=wrap;rounded=0;fontFamily=Roboto;fontSource=https%3A%2F%2Ffonts.googleapis.com%2Fcss%3Ffamily%3DRoboto;" vertex="1" parent="1">
          <mxGeometry x="459.5" y="67" width="60" height="30" as="geometry" />
        </mxCell>
        <mxCell id="6HVjOzEAQYp-GUBprz-B-21" value="" style="endArrow=none;html=1;rounded=0;fontFamily=Roboto;fontSource=https%3A%2F%2Ffonts.googleapis.com%2Fcss%3Ffamily%3DRoboto;" edge="1" parent="1">
          <mxGeometry width="50" height="50" relative="1" as="geometry">
            <mxPoint x="609.5" y="210" as="sourcePoint" />
            <mxPoint x="609.5" y="92" as="targetPoint" />
          </mxGeometry>
        </mxCell>
        <mxCell id="6HVjOzEAQYp-GUBprz-B-22" value="ESP-32" style="text;html=1;align=center;verticalAlign=middle;whiteSpace=wrap;rounded=0;fontFamily=Roboto;fontSource=https%3A%2F%2Ffonts.googleapis.com%2Fcss%3Ffamily%3DRoboto;" vertex="1" parent="1">
          <mxGeometry x="579.5" y="67" width="60" height="30" as="geometry" />
        </mxCell>
        <mxCell id="6HVjOzEAQYp-GUBprz-B-23" value="" style="endArrow=classic;html=1;rounded=0;" edge="1" parent="1">
          <mxGeometry width="50" height="50" relative="1" as="geometry">
            <mxPoint x="489.5" y="100" as="sourcePoint" />
            <mxPoint x="609.5" y="120" as="targetPoint" />
          </mxGeometry>
        </mxCell>
        <mxCell id="6HVjOzEAQYp-GUBprz-B-24" value="/discovery-hh" style="text;html=1;align=center;verticalAlign=middle;whiteSpace=wrap;rounded=0;fontFamily=Roboto;fontSource=https%3A%2F%2Ffonts.googleapis.com%2Fcss%3Ffamily%3DRoboto;rotation=10;fontSize=10;" vertex="1" parent="1">
          <mxGeometry x="509.5" y="93" width="80" height="20" as="geometry" />
        </mxCell>
        <mxCell id="6HVjOzEAQYp-GUBprz-B-25" value="" style="endArrow=classic;html=1;rounded=0;" edge="1" parent="1">
          <mxGeometry width="50" height="50" relative="1" as="geometry">
            <mxPoint x="609.5" y="140" as="sourcePoint" />
            <mxPoint x="489.5" y="160" as="targetPoint" />
          </mxGeometry>
        </mxCell>
        <mxCell id="6HVjOzEAQYp-GUBprz-B-26" value="CAM,MAC" style="text;html=1;align=center;verticalAlign=middle;whiteSpace=wrap;rounded=0;fontFamily=Roboto;fontSource=https%3A%2F%2Ffonts.googleapis.com%2Fcss%3Ffamily%3DRoboto;rotation=-10;fontSize=10;" vertex="1" parent="1">
          <mxGeometry x="509.5" y="134" width="80" height="20" as="geometry" />
        </mxCell>
        <mxCell id="6HVjOzEAQYp-GUBprz-B-27" value="CAM" style="text;html=1;align=center;verticalAlign=middle;whiteSpace=wrap;rounded=0;fontFamily=Roboto;fontSource=https%3A%2F%2Ffonts.googleapis.com%2Fcss%3Ffamily%3DRoboto;" vertex="1" parent="1">
          <mxGeometry x="599.5" y="134" width="60" height="30" as="geometry" />
        </mxCell>
        <mxCell id="6HVjOzEAQYp-GUBprz-B-28" value="" style="endArrow=classic;html=1;rounded=0;" edge="1" parent="1">
          <mxGeometry width="50" height="50" relative="1" as="geometry">
            <mxPoint x="609.5" y="179" as="sourcePoint" />
            <mxPoint x="489.5" y="199" as="targetPoint" />
          </mxGeometry>
        </mxCell>
        <mxCell id="6HVjOzEAQYp-GUBprz-B-29" value="PLO,MAC" style="text;html=1;align=center;verticalAlign=middle;whiteSpace=wrap;rounded=0;fontFamily=Roboto;fontSource=https%3A%2F%2Ffonts.googleapis.com%2Fcss%3Ffamily%3DRoboto;rotation=-10;fontSize=10;" vertex="1" parent="1">
          <mxGeometry x="509.5" y="173" width="80" height="20" as="geometry" />
        </mxCell>
        <mxCell id="6HVjOzEAQYp-GUBprz-B-30" value="Plotter" style="text;html=1;align=center;verticalAlign=middle;whiteSpace=wrap;rounded=0;fontFamily=Roboto;fontSource=https%3A%2F%2Ffonts.googleapis.com%2Fcss%3Ffamily%3DRoboto;" vertex="1" parent="1">
          <mxGeometry x="605.5" y="174" width="60" height="30" as="geometry" />
        </mxCell>
        <mxCell id="6HVjOzEAQYp-GUBprz-B-31" value="" style="endArrow=none;dashed=1;html=1;rounded=0;" edge="1" parent="1">
          <mxGeometry width="50" height="50" relative="1" as="geometry">
            <mxPoint x="609.5" y="170" as="sourcePoint" />
            <mxPoint x="489.5" y="170" as="targetPoint" />
          </mxGeometry>
        </mxCell>
        <mxCell id="6HVjOzEAQYp-GUBprz-B-32" value="" style="endArrow=none;dashed=1;html=1;rounded=0;" edge="1" parent="1">
          <mxGeometry width="50" height="50" relative="1" as="geometry">
            <mxPoint x="609.5" y="129.89" as="sourcePoint" />
            <mxPoint x="489.5" y="129.89" as="targetPoint" />
          </mxGeometry>
        </mxCell>
        <mxCell id="6HVjOzEAQYp-GUBprz-B-58" value="" style="endArrow=none;html=1;rounded=0;fontFamily=Roboto;fontSource=https%3A%2F%2Ffonts.googleapis.com%2Fcss%3Ffamily%3DRoboto;" edge="1" parent="1">
          <mxGeometry width="50" height="50" relative="1" as="geometry">
            <mxPoint x="210" y="510" as="sourcePoint" />
            <mxPoint x="210" y="370" as="targetPoint" />
          </mxGeometry>
        </mxCell>
        <mxCell id="6HVjOzEAQYp-GUBprz-B-59" value="LAN ESP-32 Plotter Actions" style="text;html=1;align=center;verticalAlign=middle;whiteSpace=wrap;rounded=0;fontFamily=Roboto;fontSource=https%3A%2F%2Ffonts.googleapis.com%2Fcss%3Ffamily%3DRoboto;fontSize=14;" vertex="1" parent="1">
          <mxGeometry x="164" y="320" width="210" height="30" as="geometry" />
        </mxCell>
        <mxCell id="6HVjOzEAQYp-GUBprz-B-60" value="Phone" style="text;html=1;align=center;verticalAlign=middle;whiteSpace=wrap;rounded=0;fontFamily=Roboto;fontSource=https%3A%2F%2Ffonts.googleapis.com%2Fcss%3Ffamily%3DRoboto;" vertex="1" parent="1">
          <mxGeometry x="179" y="345" width="60" height="30" as="geometry" />
        </mxCell>
        <mxCell id="6HVjOzEAQYp-GUBprz-B-61" value="" style="endArrow=none;html=1;rounded=0;fontFamily=Roboto;fontSource=https%3A%2F%2Ffonts.googleapis.com%2Fcss%3Ffamily%3DRoboto;" edge="1" parent="1">
          <mxGeometry width="50" height="50" relative="1" as="geometry">
            <mxPoint x="330" y="510" as="sourcePoint" />
            <mxPoint x="330" y="370" as="targetPoint" />
          </mxGeometry>
        </mxCell>
        <mxCell id="6HVjOzEAQYp-GUBprz-B-62" value="ESP-32 Plotter" style="text;html=1;align=center;verticalAlign=middle;whiteSpace=wrap;rounded=0;fontFamily=Roboto;fontSource=https%3A%2F%2Ffonts.googleapis.com%2Fcss%3Ffamily%3DRoboto;" vertex="1" parent="1">
          <mxGeometry x="289" y="345" width="80" height="30" as="geometry" />
        </mxCell>
        <mxCell id="6HVjOzEAQYp-GUBprz-B-63" value="" style="endArrow=classic;html=1;rounded=0;" edge="1" parent="1">
          <mxGeometry width="50" height="50" relative="1" as="geometry">
            <mxPoint x="210" y="380" as="sourcePoint" />
            <mxPoint x="330" y="400" as="targetPoint" />
          </mxGeometry>
        </mxCell>
        <mxCell id="6HVjOzEAQYp-GUBprz-B-64" value="/go-to?x=10&amp;amp;y=5" style="text;html=1;align=center;verticalAlign=middle;whiteSpace=wrap;rounded=0;fontFamily=Roboto;fontSource=https%3A%2F%2Ffonts.googleapis.com%2Fcss%3Ffamily%3DRoboto;rotation=10;fontSize=10;" vertex="1" parent="1">
          <mxGeometry x="230" y="373" width="80" height="20" as="geometry" />
        </mxCell>
        <mxCell id="6HVjOzEAQYp-GUBprz-B-71" value="" style="endArrow=none;dashed=1;html=1;rounded=0;" edge="1" parent="1">
          <mxGeometry width="50" height="50" relative="1" as="geometry">
            <mxPoint x="330" y="470" as="sourcePoint" />
            <mxPoint x="210" y="470" as="targetPoint" />
          </mxGeometry>
        </mxCell>
        <mxCell id="6HVjOzEAQYp-GUBprz-B-74" value="" style="endArrow=classic;html=1;rounded=0;" edge="1" parent="1">
          <mxGeometry width="50" height="50" relative="1" as="geometry">
            <mxPoint x="210" y="400" as="sourcePoint" />
            <mxPoint x="330" y="420" as="targetPoint" />
          </mxGeometry>
        </mxCell>
        <mxCell id="6HVjOzEAQYp-GUBprz-B-75" value="/short-press" style="text;html=1;align=center;verticalAlign=middle;whiteSpace=wrap;rounded=0;fontFamily=Roboto;fontSource=https%3A%2F%2Ffonts.googleapis.com%2Fcss%3Ffamily%3DRoboto;rotation=10;fontSize=10;" vertex="1" parent="1">
          <mxGeometry x="230" y="393" width="80" height="20" as="geometry" />
        </mxCell>
        <mxCell id="6HVjOzEAQYp-GUBprz-B-76" value="" style="endArrow=classic;html=1;rounded=0;" edge="1" parent="1">
          <mxGeometry width="50" height="50" relative="1" as="geometry">
            <mxPoint x="210" y="420" as="sourcePoint" />
            <mxPoint x="330" y="440" as="targetPoint" />
          </mxGeometry>
        </mxCell>
        <mxCell id="6HVjOzEAQYp-GUBprz-B-77" value="/long-press" style="text;html=1;align=center;verticalAlign=middle;whiteSpace=wrap;rounded=0;fontFamily=Roboto;fontSource=https%3A%2F%2Ffonts.googleapis.com%2Fcss%3Ffamily%3DRoboto;rotation=10;fontSize=10;" vertex="1" parent="1">
          <mxGeometry x="230" y="413" width="80" height="20" as="geometry" />
        </mxCell>
        <mxCell id="6HVjOzEAQYp-GUBprz-B-78" value="" style="endArrow=classic;html=1;rounded=0;" edge="1" parent="1">
          <mxGeometry width="50" height="50" relative="1" as="geometry">
            <mxPoint x="210" y="439" as="sourcePoint" />
            <mxPoint x="330" y="459" as="targetPoint" />
          </mxGeometry>
        </mxCell>
        <mxCell id="6HVjOzEAQYp-GUBprz-B-79" value="/move-out" style="text;html=1;align=center;verticalAlign=middle;whiteSpace=wrap;rounded=0;fontFamily=Roboto;fontSource=https%3A%2F%2Ffonts.googleapis.com%2Fcss%3Ffamily%3DRoboto;rotation=10;fontSize=10;" vertex="1" parent="1">
          <mxGeometry x="230" y="432" width="80" height="20" as="geometry" />
        </mxCell>
        <mxCell id="6HVjOzEAQYp-GUBprz-B-80" value="" style="endArrow=classic;html=1;rounded=0;" edge="1" parent="1">
          <mxGeometry width="50" height="50" relative="1" as="geometry">
            <mxPoint x="330" y="479" as="sourcePoint" />
            <mxPoint x="210" y="499" as="targetPoint" />
          </mxGeometry>
        </mxCell>
        <mxCell id="6HVjOzEAQYp-GUBprz-B-81" value="200 OK" style="text;html=1;align=center;verticalAlign=middle;whiteSpace=wrap;rounded=0;fontFamily=Roboto;fontSource=https%3A%2F%2Ffonts.googleapis.com%2Fcss%3Ffamily%3DRoboto;rotation=-10;fontSize=10;" vertex="1" parent="1">
          <mxGeometry x="230" y="473" width="80" height="20" as="geometry" />
        </mxCell>
        <mxCell id="6HVjOzEAQYp-GUBprz-B-82" value="" style="endArrow=none;html=1;rounded=0;fontFamily=Roboto;fontSource=https%3A%2F%2Ffonts.googleapis.com%2Fcss%3Ffamily%3DRoboto;" edge="1" parent="1">
          <mxGeometry width="50" height="50" relative="1" as="geometry">
            <mxPoint x="490" y="440" as="sourcePoint" />
            <mxPoint x="490" y="370" as="targetPoint" />
          </mxGeometry>
        </mxCell>
        <mxCell id="6HVjOzEAQYp-GUBprz-B-83" value="LAN ESP-32 CAM Actions" style="text;html=1;align=center;verticalAlign=middle;whiteSpace=wrap;rounded=0;fontFamily=Roboto;fontSource=https%3A%2F%2Ffonts.googleapis.com%2Fcss%3Ffamily%3DRoboto;fontSize=14;" vertex="1" parent="1">
          <mxGeometry x="442.5" y="320" width="210" height="30" as="geometry" />
        </mxCell>
        <mxCell id="6HVjOzEAQYp-GUBprz-B-84" value="Phone" style="text;html=1;align=center;verticalAlign=middle;whiteSpace=wrap;rounded=0;fontFamily=Roboto;fontSource=https%3A%2F%2Ffonts.googleapis.com%2Fcss%3Ffamily%3DRoboto;" vertex="1" parent="1">
          <mxGeometry x="459.5" y="345" width="60" height="30" as="geometry" />
        </mxCell>
        <mxCell id="6HVjOzEAQYp-GUBprz-B-85" value="" style="endArrow=none;html=1;rounded=0;fontFamily=Roboto;fontSource=https%3A%2F%2Ffonts.googleapis.com%2Fcss%3Ffamily%3DRoboto;" edge="1" parent="1">
          <mxGeometry width="50" height="50" relative="1" as="geometry">
            <mxPoint x="610" y="440" as="sourcePoint" />
            <mxPoint x="610.25" y="370" as="targetPoint" />
          </mxGeometry>
        </mxCell>
        <mxCell id="6HVjOzEAQYp-GUBprz-B-86" value="ESP-32 CAM" style="text;html=1;align=center;verticalAlign=middle;whiteSpace=wrap;rounded=0;fontFamily=Roboto;fontSource=https%3A%2F%2Ffonts.googleapis.com%2Fcss%3Ffamily%3DRoboto;" vertex="1" parent="1">
          <mxGeometry x="569.5" y="345" width="80" height="30" as="geometry" />
        </mxCell>
        <mxCell id="6HVjOzEAQYp-GUBprz-B-87" value="" style="endArrow=classic;html=1;rounded=0;" edge="1" parent="1">
          <mxGeometry width="50" height="50" relative="1" as="geometry">
            <mxPoint x="490.5" y="380" as="sourcePoint" />
            <mxPoint x="610.5" y="400" as="targetPoint" />
          </mxGeometry>
        </mxCell>
        <mxCell id="6HVjOzEAQYp-GUBprz-B-88" value="/capture" style="text;html=1;align=center;verticalAlign=middle;whiteSpace=wrap;rounded=0;fontFamily=Roboto;fontSource=https%3A%2F%2Ffonts.googleapis.com%2Fcss%3Ffamily%3DRoboto;rotation=10;fontSize=10;" vertex="1" parent="1">
          <mxGeometry x="510.5" y="372" width="80" height="20" as="geometry" />
        </mxCell>
        <mxCell id="6HVjOzEAQYp-GUBprz-B-96" value="" style="endArrow=classic;html=1;rounded=0;" edge="1" parent="1">
          <mxGeometry width="50" height="50" relative="1" as="geometry">
            <mxPoint x="610.5" y="411" as="sourcePoint" />
            <mxPoint x="490.5" y="431" as="targetPoint" />
          </mxGeometry>
        </mxCell>
        <mxCell id="6HVjOzEAQYp-GUBprz-B-97" value="image/jpeg" style="text;html=1;align=center;verticalAlign=middle;whiteSpace=wrap;rounded=0;fontFamily=Roboto;fontSource=https%3A%2F%2Ffonts.googleapis.com%2Fcss%3Ffamily%3DRoboto;rotation=-10;fontSize=10;" vertex="1" parent="1">
          <mxGeometry x="510.5" y="404" width="80" height="20" as="geometry" />
        </mxCell>
        <mxCell id="6HVjOzEAQYp-GUBprz-B-99" value="" style="endArrow=none;html=1;rounded=0;fontFamily=Roboto;fontSource=https%3A%2F%2Ffonts.googleapis.com%2Fcss%3Ffamily%3DRoboto;" edge="1" parent="1">
          <mxGeometry width="50" height="50" relative="1" as="geometry">
            <mxPoint x="210" y="690" as="sourcePoint" />
            <mxPoint x="210" y="610" as="targetPoint" />
          </mxGeometry>
        </mxCell>
        <mxCell id="6HVjOzEAQYp-GUBprz-B-100" value="Computer Vision Server Actions" style="text;html=1;align=center;verticalAlign=middle;whiteSpace=wrap;rounded=0;fontFamily=Roboto;fontSource=https%3A%2F%2Ffonts.googleapis.com%2Fcss%3Ffamily%3DRoboto;fontSize=14;" vertex="1" parent="1">
          <mxGeometry x="165" y="560" width="210" height="30" as="geometry" />
        </mxCell>
        <mxCell id="6HVjOzEAQYp-GUBprz-B-101" value="Phone" style="text;html=1;align=center;verticalAlign=middle;whiteSpace=wrap;rounded=0;fontFamily=Roboto;fontSource=https%3A%2F%2Ffonts.googleapis.com%2Fcss%3Ffamily%3DRoboto;" vertex="1" parent="1">
          <mxGeometry x="180" y="585" width="60" height="30" as="geometry" />
        </mxCell>
        <mxCell id="6HVjOzEAQYp-GUBprz-B-102" value="" style="endArrow=none;html=1;rounded=0;fontFamily=Roboto;fontSource=https%3A%2F%2Ffonts.googleapis.com%2Fcss%3Ffamily%3DRoboto;" edge="1" parent="1">
          <mxGeometry width="50" height="50" relative="1" as="geometry">
            <mxPoint x="330" y="690" as="sourcePoint" />
            <mxPoint x="330" y="610" as="targetPoint" />
          </mxGeometry>
        </mxCell>
        <mxCell id="6HVjOzEAQYp-GUBprz-B-103" value="CV Server" style="text;html=1;align=center;verticalAlign=middle;whiteSpace=wrap;rounded=0;fontFamily=Roboto;fontSource=https%3A%2F%2Ffonts.googleapis.com%2Fcss%3Ffamily%3DRoboto;" vertex="1" parent="1">
          <mxGeometry x="290" y="585" width="80" height="30" as="geometry" />
        </mxCell>
        <mxCell id="6HVjOzEAQYp-GUBprz-B-104" value="" style="endArrow=classic;html=1;rounded=0;" edge="1" parent="1">
          <mxGeometry width="50" height="50" relative="1" as="geometry">
            <mxPoint x="210" y="620" as="sourcePoint" />
            <mxPoint x="330" y="640" as="targetPoint" />
          </mxGeometry>
        </mxCell>
        <mxCell id="6HVjOzEAQYp-GUBprz-B-105" value="/analyse" style="text;html=1;align=center;verticalAlign=middle;whiteSpace=wrap;rounded=0;fontFamily=Roboto;fontSource=https%3A%2F%2Ffonts.googleapis.com%2Fcss%3Ffamily%3DRoboto;rotation=10;fontSize=10;" vertex="1" parent="1">
          <mxGeometry x="230" y="613" width="80" height="20" as="geometry" />
        </mxCell>
        <mxCell id="6HVjOzEAQYp-GUBprz-B-113" value="" style="endArrow=classic;html=1;rounded=0;" edge="1" parent="1">
          <mxGeometry width="50" height="50" relative="1" as="geometry">
            <mxPoint x="330" y="660" as="sourcePoint" />
            <mxPoint x="210" y="680" as="targetPoint" />
          </mxGeometry>
        </mxCell>
        <mxCell id="6HVjOzEAQYp-GUBprz-B-114" value="Mapping file" style="text;html=1;align=center;verticalAlign=middle;whiteSpace=wrap;rounded=0;fontFamily=Roboto;fontSource=https%3A%2F%2Ffonts.googleapis.com%2Fcss%3Ffamily%3DRoboto;rotation=-10;fontSize=10;" vertex="1" parent="1">
          <mxGeometry x="230" y="652" width="80" height="20" as="geometry" />
        </mxCell>
        <mxCell id="6HVjOzEAQYp-GUBprz-B-115" value="image/jpeg" style="text;html=1;align=center;verticalAlign=middle;whiteSpace=wrap;rounded=0;fontFamily=Roboto;fontSource=https%3A%2F%2Ffonts.googleapis.com%2Fcss%3Ffamily%3DRoboto;rotation=10;fontSize=10;" vertex="1" parent="1">
          <mxGeometry x="229" y="627" width="80" height="20" as="geometry" />
        </mxCell>
        <mxCell id="6HVjOzEAQYp-GUBprz-B-127" value="CSV file&lt;br style=&quot;font-size: 10px;&quot;&gt;&lt;font data-font-src=&quot;https://fonts.googleapis.com/css?family=Fira+Code&quot; face=&quot;Fira Code&quot;&gt;label,x,y&lt;/font&gt;" style="text;html=1;align=center;verticalAlign=middle;whiteSpace=wrap;rounded=0;fontFamily=Roboto;fontSource=https%3A%2F%2Ffonts.googleapis.com%2Fcss%3Ffamily%3DRoboto;fontSize=10;" vertex="1" parent="1">
          <mxGeometry x="240" y="685" width="60" height="30" as="geometry" />
        </mxCell>
      </root>
    </mxGraphModel>
  </diagram>
</mxfile>
